<?xml version="1.0" encoding="UTF-8"?>
<svg width="835px" height="163px" viewBox="0 0 835 163" version="1.1" xmlns="http://www.w3.org/2000/svg" xmlns:xlink="http://www.w3.org/1999/xlink" xmlns:sketch="http://www.bohemiancoding.com/sketch/ns">
    <!-- Generator: Sketch 3.5.1 (25234) - http://www.bohemiancoding.com/sketch -->
    <title>Flickroo</title>
    <desc>Created with Sketch.</desc>
    <defs>
        <linearGradient x1="50%" y1="0%" x2="50.7388664%" y2="94.2220501%" id="linearGradient-1">
            <stop stop-color="#FF2929" offset="0%"></stop>
            <stop stop-color="#F9FF00" offset="100%"></stop>
        </linearGradient>
    </defs>
    <g id="Page-1" stroke="none" stroke-width="1" fill="none" fill-rule="evenodd" sketch:type="MSPage">
        <path d="M61.446,10.795 L170.863,10.795 L155.841,47.741 L90.069,47.741 L79.513,72.71 L135.947,72.71 L121.534,108.438 L65.506,108.438 L44.597,160 L0.749,160 L61.446,10.795 Z M228.109,0.848 L163.149,160 L119.504,160 L180.404,10.795 C181.75734,7.68231777 183.78732,5.24634213 186.494,3.487 C189.20068,1.72765787 192.110318,0.848 195.223,0.848 L228.109,0.848 Z M229.936,27.847 L273.378,27.847 L219.583,160 L176.141,160 L229.936,27.847 Z M284.34,0.645 L277.438,17.697 L233.996,17.697 L236.635,10.795 C237.98834,7.68231777 240.01832,5.21250914 242.725,3.3855 C245.43168,1.55849087 248.341318,0.645 251.454,0.645 L284.34,0.645 Z M335.09,25.411 C351.330081,25.411 363.07013,29.6062914 370.3105,37.997 C377.55087,46.3877086 379.344018,58.3645889 375.69,73.928 C375.69,74.334002 375.554668,74.9429959 375.284,75.755 C374.201328,79.0030162 372.239014,81.2359939 369.397,82.454 C366.554986,83.6720061 363.374684,84.281 359.856,84.281 L324.331,84.281 L329.203,71.086 C330.285672,68.6499878 330.319505,66.5861751 329.3045,64.8945 C328.289495,63.2028249 326.564012,62.357 324.128,62.357 C320.74465,62.357 318.342507,62.9998269 316.9215,64.2855 C315.500493,65.5711731 314.045674,67.9733157 312.557,71.492 L294.693,117.37 C292.66299,122.512692 292.053996,125.828326 292.866,127.317 C293.678004,128.805674 295.369654,129.55 297.941,129.55 C300.918348,129.55 303.354324,128.907173 305.249,127.6215 C307.143676,126.335827 308.76766,124.00135 310.121,120.618 L314.384,110.062 L351.533,110.062 C354.645682,110.062 357.047825,110.670994 358.7395,111.889 C360.431175,113.107006 360.60034,115.272318 359.247,118.385 L358.435,120.415 C354.510314,129.617713 350.687185,136.993306 346.9655,142.542 C343.243815,148.090694 339.183855,152.319819 334.7855,155.2295 C330.387145,158.139181 325.447527,160.033829 319.9665,160.9135 C314.485473,161.793171 308.158703,162.233 300.986,162.233 L280.483,162.233 C274.663638,162.233 269.115026,161.387175 263.837,159.6955 C258.558974,158.003825 254.296016,155.12802 251.048,151.068 C247.799984,147.00798 245.973002,141.628533 245.567,134.9295 C245.160998,128.230467 246.98798,119.873717 251.048,109.859 C252.266006,106.746318 253.619326,103.16002 255.108,99.1 C256.46134,95.5813157 258.085324,91.3183584 259.98,86.311 C261.874676,81.3036416 264.17532,75.4843665 266.882,68.853 C272.024692,55.725601 279.603283,45.2035396 289.618,37.2865 C299.632717,29.3694604 311.812595,25.411 326.158,25.411 L335.09,25.411 Z M455.875,100.724 L478.814,160 L445.522,160 C441.732648,160 438.721511,159.120342 436.4885,157.361 C434.255489,155.601658 432.665338,153.504012 431.718,151.068 L416.696,108.438 L395.584,160 L352.142,160 L413.042,10.795 C414.260006,7.68231777 416.256153,5.24634213 419.0305,3.487 C421.804847,1.72765787 424.748318,0.848 427.861,0.848 L460.747,0.848 L429.282,77.379 L472.115,36.373 C474.415678,34.0723218 477.426815,32.0761751 481.1485,30.3845 C484.870185,28.6928249 488.76098,27.847 492.821,27.847 L532.406,27.847 L455.875,100.724 Z M581.735,61.342 C580.787662,62.2893381 579.265177,63.1013299 577.1675,63.778 C575.069823,64.4546701 573.073676,64.793 571.179,64.793 C569.013656,64.793 567.59267,64.928332 566.916,65.199 L528.346,160 L484.701,160 L538.496,27.847 L582.141,27.847 C593.238389,27.847 602.237965,29.8769797 609.14,33.937 L581.735,61.342 Z M669.634,25.411 C678.701379,25.411 686.415302,26.7643198 692.776,29.471 C699.136698,32.1776802 703.940984,36.1699736 707.189,41.448 C710.437016,46.7260264 712.027167,53.1881284 711.9595,60.8345 C711.891833,68.4808716 709.963352,77.1759513 706.174,86.92 C704.279324,91.6566903 702.824505,95.3444868 701.8095,97.9835 C700.794495,100.622513 699.881004,102.95699 699.069,104.987 C698.256996,107.01701 697.411171,109.114656 696.5315,111.28 C695.651829,113.445344 694.400008,116.490314 692.776,120.415 C688.851314,129.617713 685.028185,136.993306 681.3065,142.542 C677.584815,148.090694 673.524855,152.319819 669.1265,155.2295 C664.728145,158.139181 659.788527,160.033829 654.3075,160.9135 C648.826473,161.793171 642.499703,162.233 635.327,162.233 L615.027,162.233 C609.207638,162.233 603.625193,161.387175 598.2795,159.6955 C592.933807,158.003825 588.637016,155.12802 585.389,151.068 C582.140984,147.00798 580.314002,141.628533 579.908,134.9295 C579.501998,128.230467 581.32898,119.873717 585.389,109.859 C586.607006,106.746318 587.960326,103.16002 589.449,99.1 C590.80234,95.5813157 592.426324,91.3183584 594.321,86.311 C596.215676,81.3036416 598.51632,75.4843665 601.223,68.853 C606.501026,55.725601 614.11345,45.2035396 624.0605,37.2865 C634.00755,29.3694604 646.153595,25.411 660.499,25.411 L669.634,25.411 Z M663.747,71.086 C664.829672,68.6499878 664.829672,66.5861751 663.747,64.8945 C662.664328,63.2028249 660.972678,62.357 658.672,62.357 C655.28865,62.357 652.852674,62.9998269 651.364,64.2855 C649.875326,65.5711731 648.386674,67.9733157 646.898,71.492 L629.034,117.37 C627.00399,122.512692 626.394996,125.828326 627.207,127.317 C628.019004,128.805674 629.710654,129.55 632.282,129.55 C635.259348,129.55 637.729157,128.907173 639.6915,127.6215 C641.653843,126.335827 643.31166,124.00135 644.665,120.618 L663.747,71.086 Z M792.652,25.411 C801.719379,25.411 809.433302,26.7643198 815.794,29.471 C822.154698,32.1776802 826.958984,36.1699736 830.207,41.448 C833.455016,46.7260264 835.045167,53.1881284 834.9775,60.8345 C834.909833,68.4808716 832.981352,77.1759513 829.192,86.92 C827.297324,91.6566903 825.842505,95.3444868 824.8275,97.9835 C823.812495,100.622513 822.899004,102.95699 822.087,104.987 C821.274996,107.01701 820.429171,109.114656 819.5495,111.28 C818.669829,113.445344 817.418008,116.490314 815.794,120.415 C811.869314,129.617713 808.046185,136.993306 804.3245,142.542 C800.602815,148.090694 796.542855,152.319819 792.1445,155.2295 C787.746145,158.139181 782.806527,160.033829 777.3255,160.9135 C771.844473,161.793171 765.517703,162.233 758.345,162.233 L738.045,162.233 C732.225638,162.233 726.643193,161.387175 721.2975,159.6955 C715.951807,158.003825 711.655016,155.12802 708.407,151.068 C705.158984,147.00798 703.332002,141.628533 702.926,134.9295 C702.519998,128.230467 704.34698,119.873717 708.407,109.859 C709.625006,106.746318 710.978326,103.16002 712.467,99.1 C713.82034,95.5813157 715.444324,91.3183584 717.339,86.311 C719.233676,81.3036416 721.53432,75.4843665 724.241,68.853 C729.519026,55.725601 737.13145,45.2035396 747.0785,37.2865 C757.02555,29.3694604 769.171595,25.411 783.517,25.411 L792.652,25.411 Z M786.765,71.086 C787.847672,68.6499878 787.847672,66.5861751 786.765,64.8945 C785.682328,63.2028249 783.990678,62.357 781.69,62.357 C778.30665,62.357 775.870674,62.9998269 774.382,64.2855 C772.893326,65.5711731 771.404674,67.9733157 769.916,71.492 L752.052,117.37 C750.02199,122.512692 749.412996,125.828326 750.225,127.317 C751.037004,128.805674 752.728654,129.55 755.3,129.55 C758.277348,129.55 760.747157,128.907173 762.7095,127.6215 C764.671843,126.335827 766.32966,124.00135 767.683,120.618 L786.765,71.086 Z" id="Flickroo" fill="url(#linearGradient-1)" sketch:type="MSShapeGroup"></path>
    </g>
</svg>